<?xml version="1.0" standalone="no"?>
<!DOCTYPE svg PUBLIC "-//W3C//DTD SVG 20010904//EN"
 "http://www.w3.org/TR/2001/REC-SVG-20010904/DTD/svg10.dtd">
<svg version="1.0" xmlns="http://www.w3.org/2000/svg"
 width="1920.000000pt" height="1280.000000pt" viewBox="0 0 1920.000000 1280.000000"
 preserveAspectRatio="xMidYMid meet">

<g transform="translate(0.000000,1280.000000) scale(0.100000,-0.100000)"
fill="#000000" stroke="none">
<path d="M0 6400 l0 -6400 9600 0 9600 0 0 6400 0 6400 -9600 0 -9600 0 0
-6400z m3660 4538 c0 -26 -4 -48 -9 -48 -11 0 -21 50 -21 99 1 34 2 35 15 17
9 -11 15 -41 15 -68z m26 -245 c9 -81 17 -149 18 -150 1 -1 31 -6 66 -10 64
-8 65 -8 68 -41 l3 -33 -65 7 c-37 4 -66 3 -66 -2 0 -11 47 -459 56 -536 4
-31 3 -65 -1 -75 -6 -16 -8 -16 -16 4 -4 12 -20 138 -34 280 -14 142 -29 276
-33 298 l-8 40 -59 9 c-62 9 -75 18 -75 50 0 17 6 18 65 14 76 -7 71 -26 51
172 -8 74 -12 139 -9 144 13 20 24 -31 39 -171z m-751 -138 c128 -9 133 -11
139 -53 9 -61 81 -715 117 -1065 7 -65 15 -113 19 -107 5 8 9 6 14 -5 10 -26
7 -55 -5 -55 -13 0 -2 -130 12 -145 10 -10 129 -24 129 -15 0 4 21 6 48 6 26
-1 56 3 67 9 11 5 23 8 28 7 4 -1 7 6 7 16 0 14 2 15 10 2 6 -10 10 -11 10 -2
0 6 7 12 15 12 8 0 15 7 15 15 0 8 3 14 8 14 17 -3 30 2 50 22 13 11 31 21 42
22 11 1 20 7 20 15 0 7 5 10 10 7 6 -3 10 -1 10 4 0 6 6 11 13 11 17 0 67 42
67 56 0 8 -13 9 -40 4 -26 -5 -41 -3 -44 4 -2 6 -5 3 -5 -8 -1 -15 -8 -17 -41
-14 -23 2 -40 -1 -40 -7 0 -14 -20 17 -20 31 0 7 15 11 38 10 20 -1 40 2 44 8
3 5 22 9 42 9 20 0 36 5 36 11 0 6 5 4 10 -4 7 -12 10 -12 10 -1 0 9 11 12 40
9 22 -2 40 0 40 5 0 4 5 5 10 2 6 -3 10 -2 10 3 0 5 23 10 52 11 29 1 55 5 58
9 3 4 16 9 30 10 14 2 29 8 35 13 5 5 19 9 32 9 13 0 23 4 23 8 0 4 23 16 50
26 28 10 50 22 50 27 0 5 11 9 25 9 14 0 25 5 25 10 0 6 11 10 25 10 14 0 25
5 25 10 0 6 5 10 12 10 18 0 88 33 88 42 0 4 11 8 25 8 14 0 25 5 25 10 0 6
11 10 25 10 14 0 25 4 25 9 0 17 41 19 104 6 35 -8 72 -18 82 -24 11 -5 48
-15 84 -21 73 -13 188 -48 209 -64 7 -6 21 -15 32 -21 65 -36 205 -120 209
-125 3 -3 16 -11 30 -18 58 -30 85 -45 90 -52 6 -8 85 -36 159 -57 30 -8 64
-21 75 -28 12 -7 39 -16 61 -20 22 -3 49 -12 60 -19 11 -7 38 -16 60 -20 22
-4 47 -13 55 -21 8 -7 29 -15 45 -19 17 -4 44 -13 60 -21 81 -38 124 -55 165
-65 42 -11 131 -63 175 -103 11 -10 32 -25 48 -33 15 -8 27 -19 27 -24 0 -6 4
-10 10 -10 5 0 41 -24 79 -52 37 -29 79 -60 91 -68 13 -8 32 -23 42 -32 10
-10 20 -18 24 -18 3 0 36 -25 74 -55 38 -30 74 -55 79 -55 6 0 11 -4 11 -10 0
-5 13 -16 29 -24 15 -8 39 -24 52 -36 13 -11 49 -38 79 -60 30 -22 64 -47 75
-55 11 -9 58 -41 105 -72 47 -30 90 -60 95 -67 6 -6 24 -18 40 -27 17 -8 55
-32 86 -51 l55 -36 -4 110 c-3 74 -1 113 7 121 23 23 35 -13 42 -125 4 -62 8
-114 8 -115 1 0 25 -4 54 -8 78 -10 87 -14 87 -40 0 -20 7 -25 50 -34 28 -6
57 -11 65 -11 7 0 26 -5 42 -11 15 -6 30 -10 32 -9 2 1 7 -3 10 -8 3 -6 107
-22 231 -36 241 -28 320 -42 320 -58 0 -5 4 -7 9 -3 5 3 12 1 16 -5 3 -5 17
-10 31 -10 14 0 41 -7 62 -17 46 -20 39 -18 87 -28 22 -4 46 -12 53 -18 6 -5
12 -6 12 -1 0 5 6 2 13 -6 7 -8 25 -16 41 -18 16 -2 50 -14 75 -28 25 -13 52
-24 58 -24 7 0 13 -7 13 -16 0 -8 4 -13 9 -10 9 6 72 -13 81 -24 3 -3 21 -12
40 -20 19 -7 41 -20 48 -28 6 -9 12 -13 12 -9 0 9 64 -14 72 -26 3 -6 17 -12
30 -14 13 -2 29 -11 36 -20 9 -13 12 -14 12 -2 1 10 3 9 11 -3 5 -10 19 -18
30 -18 11 0 22 -7 25 -15 4 -8 15 -15 25 -15 10 0 28 -9 39 -20 11 -11 21 -19
23 -18 6 5 67 -22 67 -30 0 -5 13 -12 30 -15 16 -4 30 -12 30 -19 0 -7 11 -14
24 -14 14 -1 38 -11 54 -23 17 -12 37 -21 46 -21 8 0 19 -6 23 -13 4 -7 20
-18 36 -24 15 -7 27 -17 27 -23 0 -5 8 -10 18 -10 11 0 29 -9 42 -20 12 -11
31 -22 41 -25 11 -4 19 -11 19 -16 0 -5 7 -9 15 -9 8 0 23 -8 33 -17 9 -10 30
-24 45 -30 15 -7 27 -17 27 -22 0 -6 6 -8 14 -5 8 3 24 -4 35 -15 11 -11 32
-23 46 -27 14 -3 25 -12 25 -20 0 -7 6 -11 14 -8 8 3 24 -4 35 -15 13 -13 21
-16 21 -8 1 8 5 6 13 -4 7 -9 23 -20 37 -24 14 -4 27 -10 30 -14 7 -8 49 -31
138 -75 39 -20 72 -41 72 -46 0 -6 9 -10 19 -10 11 0 26 -6 33 -13 7 -7 25
-18 41 -24 15 -7 27 -18 27 -24 0 -6 7 -9 15 -5 8 3 15 1 15 -4 0 -6 7 -10 15
-10 8 0 15 -4 15 -9 0 -5 8 -11 18 -14 24 -8 96 -50 104 -62 5 -7 8 -7 8 0 0
6 6 3 13 -5 14 -17 58 -44 100 -61 15 -6 27 -15 27 -19 0 -5 13 -11 30 -15 16
-4 34 -13 38 -22 5 -8 13 -14 18 -13 19 3 96 -24 100 -34 3 -7 19 -13 36 -14
18 -2 47 -11 65 -22 18 -10 49 -22 69 -26 19 -3 38 -13 41 -20 3 -8 9 -12 13
-9 5 3 11 1 15 -5 3 -5 17 -10 31 -10 14 0 27 -7 30 -15 4 -8 10 -13 14 -10 5
3 11 1 15 -5 3 -5 17 -10 30 -10 13 0 28 -8 34 -17 5 -10 11 -16 13 -14 5 7
78 -20 78 -28 0 -4 19 -14 43 -21 23 -7 45 -17 49 -23 3 -6 17 -12 30 -14 13
-2 35 -12 50 -23 15 -11 31 -20 36 -20 21 0 243 -126 250 -142 2 -5 9 -8 16
-8 7 0 21 -8 32 -18 10 -9 30 -23 44 -30 70 -36 86 -46 93 -59 4 -7 15 -13 22
-13 8 0 15 -4 15 -10 0 -5 6 -10 13 -10 8 0 30 -18 50 -40 19 -22 40 -40 46
-40 6 0 11 -7 11 -16 0 -8 4 -13 8 -10 4 2 27 -13 50 -35 24 -21 47 -39 52
-39 6 0 10 -6 10 -14 0 -8 6 -16 14 -18 29 -7 326 -287 326 -308 0 -5 7 -10
15 -10 8 0 15 -7 15 -16 0 -8 5 -12 11 -9 6 4 13 -2 16 -14 3 -11 9 -18 14
-15 5 3 13 -5 18 -18 6 -13 10 -19 10 -14 1 5 49 -40 108 -100 58 -60 110
-109 114 -109 5 0 19 -9 31 -20 13 -11 26 -20 30 -20 4 0 18 -9 30 -20 13 -11
35 -25 51 -32 15 -7 27 -17 27 -23 0 -5 7 -10 15 -10 8 0 15 -7 15 -15 0 -9 6
-12 15 -9 8 4 15 1 15 -5 0 -6 7 -11 15 -11 8 0 15 -4 15 -10 0 -5 7 -10 15
-10 8 0 23 -8 33 -18 9 -9 30 -23 45 -29 15 -7 27 -17 27 -23 0 -5 5 -10 11
-10 19 0 89 -55 89 -70 0 -11 2 -12 8 -3 6 9 14 7 32 -10 14 -12 37 -28 53
-34 15 -7 27 -17 27 -23 0 -5 5 -10 12 -10 21 0 148 -93 148 -109 0 -14 2 -14
10 -1 7 12 13 10 33 -12 14 -15 27 -24 30 -22 8 9 47 -20 47 -34 0 -8 6 -12
14 -9 8 3 26 -5 40 -18 14 -13 26 -20 26 -15 0 11 62 -21 73 -38 5 -7 12 -10
16 -7 5 2 20 -6 34 -19 14 -13 28 -22 30 -20 2 2 36 -12 75 -31 46 -23 72 -42
73 -53 0 -9 3 -12 5 -6 6 15 54 -6 54 -23 0 -7 7 -10 15 -7 8 4 15 1 15 -5 0
-6 7 -11 15 -11 8 0 15 -4 15 -10 0 -5 6 -10 13 -10 7 0 24 -10 37 -22 14 -13
28 -22 31 -21 4 1 19 -9 33 -22 15 -14 31 -25 37 -25 5 0 9 -12 10 -27 l1 -28
8 25 c6 22 8 23 15 8 4 -10 13 -18 21 -18 8 0 14 -4 14 -10 0 -5 6 -10 14 -10
7 0 25 -11 39 -24 14 -13 28 -22 30 -20 2 2 16 -7 31 -21 14 -13 30 -23 34
-22 4 1 10 -11 13 -28 5 -24 7 -26 8 -7 2 34 21 16 22 -21 1 -24 3 -26 6 -9 6
31 23 28 24 -5 1 -26 1 -26 7 -5 l7 22 28 -25 c15 -14 27 -34 28 -43 0 -15 1
-15 8 1 6 17 8 17 32 -5 14 -13 31 -22 36 -21 6 2 19 -7 30 -20 10 -13 24 -22
31 -19 8 2 12 -8 13 -30 0 -30 1 -31 9 -10 l10 22 20 -20 c12 -12 25 -31 30
-43 l9 -22 0 22 1 22 25 -23 c14 -13 26 -34 26 -47 2 -24 2 -24 6 -1 6 29 17
28 41 -3 11 -14 25 -25 31 -25 6 0 11 -15 12 -32 0 -33 0 -33 11 -8 11 24 12
24 18 -15 4 -22 8 -30 9 -17 1 29 15 28 41 -5 15 -19 19 -35 16 -57 l-6 -31
14 29 c16 34 30 20 20 -21 -4 -19 -3 -25 4 -18 5 6 12 19 14 30 4 16 7 13 15
-15 6 -19 12 -27 12 -17 2 31 21 8 22 -26 l1 -32 8 30 c6 25 8 27 15 12 4 -9
5 -30 3 -47 -2 -16 -1 -27 4 -24 4 3 8 14 8 25 0 10 5 19 10 19 11 0 13 -39 4
-64 -8 -20 -44 -21 -44 -1 0 8 -11 17 -25 21 -14 3 -25 12 -25 19 0 7 -10 15
-21 18 -15 4 -20 11 -16 21 5 12 0 16 -19 16 -13 0 -27 7 -30 15 -4 8 -11 15
-16 15 -14 0 -58 43 -58 56 0 7 -11 15 -25 18 -14 4 -23 11 -20 16 3 6 -3 10
-14 10 -12 0 -26 9 -33 20 -7 11 -19 20 -26 20 -6 0 -20 9 -29 20 -10 11 -22
20 -29 20 -6 0 -19 9 -29 20 -10 11 -23 20 -30 20 -7 0 -20 9 -30 20 -10 11
-24 20 -31 20 -7 0 -17 6 -21 13 -4 7 -20 18 -35 24 -16 7 -28 17 -28 23 0 5
-5 10 -12 10 -12 0 -81 44 -106 67 -6 6 -21 15 -32 18 -11 3 -20 10 -20 15 0
4 -14 13 -31 19 -17 6 -28 15 -24 21 3 5 -3 10 -15 10 -11 0 -28 9 -37 20 -10
11 -23 20 -30 20 -7 0 -21 9 -30 20 -10 11 -21 20 -25 20 -5 0 -31 16 -58 35
-27 19 -54 35 -58 35 -5 0 -17 9 -27 20 -10 11 -23 20 -30 20 -7 0 -20 9 -30
20 -10 11 -23 20 -30 20 -7 0 -20 9 -30 20 -10 11 -26 20 -37 20 -10 0 -27 9
-38 20 -11 11 -27 20 -35 20 -8 0 -24 9 -35 20 -11 11 -29 20 -40 20 -11 0
-29 9 -40 20 -11 11 -26 20 -34 20 -7 0 -24 8 -37 18 -13 10 -51 31 -84 47
-33 16 -64 35 -68 42 -4 7 -15 13 -23 13 -8 0 -22 9 -31 20 -10 11 -21 20 -25
20 -11 0 -132 83 -141 97 -4 7 -14 13 -22 13 -15 0 -73 37 -100 64 -9 9 -23
16 -31 16 -8 0 -14 5 -14 10 0 6 -8 14 -17 18 -35 15 -93 54 -93 63 0 5 -7 9
-15 9 -8 0 -24 9 -35 20 -11 11 -23 20 -27 20 -7 0 -83 50 -93 61 -3 3 -29 20
-57 39 -29 18 -53 37 -53 42 0 4 -7 8 -16 8 -26 0 -96 64 -338 306 -127 127
-238 235 -248 240 -9 5 -38 29 -64 54 -26 25 -62 56 -79 70 -33 26 -166 143
-197 173 -10 9 -22 17 -27 17 -5 0 -15 7 -22 16 -7 9 -22 20 -34 26 -30 14
-74 40 -125 73 -60 39 -99 62 -132 75 -14 6 -29 18 -32 26 -3 8 -14 14 -25 14
-11 0 -23 5 -26 10 -4 6 -21 17 -38 25 -18 7 -43 20 -57 28 -44 24 -194 96
-222 107 -16 5 -28 14 -28 19 0 5 -18 12 -40 16 -22 4 -43 12 -47 19 -5 7 -27
18 -50 24 -24 7 -43 17 -43 22 0 5 -25 14 -56 20 -30 6 -58 18 -60 25 -3 7
-22 16 -42 20 -20 3 -46 12 -57 19 -11 7 -38 19 -60 26 -22 7 -46 17 -53 23
-8 6 -23 12 -34 14 -27 4 -58 22 -58 33 0 6 -8 10 -18 10 -11 0 -27 9 -37 20
-10 11 -21 17 -26 14 -5 -2 -16 3 -26 13 -10 10 -31 24 -46 30 -15 7 -27 17
-27 23 0 5 -8 10 -18 10 -11 0 -27 9 -37 20 -10 11 -27 20 -37 20 -10 0 -21 7
-24 15 -4 8 -12 15 -20 15 -8 0 -23 9 -34 20 -11 11 -31 22 -45 26 -14 3 -25
9 -25 13 0 5 -18 14 -41 21 -23 8 -43 19 -46 26 -2 6 -17 14 -34 18 -16 3 -29
11 -29 19 0 7 -10 13 -22 14 -12 1 -34 11 -49 23 -16 11 -35 20 -43 20 -8 0
-22 10 -30 22 -9 12 -16 19 -16 16 0 -4 -13 -2 -30 3 -16 6 -27 15 -24 20 3 5
-2 6 -10 3 -9 -3 -16 -1 -16 5 0 6 -6 11 -12 11 -7 0 -40 18 -73 40 -33 22
-66 40 -72 40 -7 0 -13 4 -13 10 0 5 -16 16 -35 24 -19 8 -35 19 -35 23 0 5
-10 10 -22 10 -13 1 -24 7 -26 13 -2 6 -19 17 -38 25 -19 8 -34 19 -34 24 0 6
-7 11 -15 11 -8 0 -23 8 -33 18 -10 9 -27 19 -37 20 -11 2 -24 10 -28 18 -4 8
-15 14 -22 14 -8 0 -24 9 -35 20 -12 12 -20 15 -20 8 0 -8 -3 -9 -8 -3 -8 12
-57 40 -94 56 -16 6 -28 14 -28 18 0 4 -18 13 -41 20 -22 7 -43 19 -46 27 -3
8 -16 14 -30 14 -16 0 -27 7 -30 20 -3 11 -9 18 -13 15 -12 -7 -80 23 -80 36
0 5 -5 7 -10 4 -6 -4 -22 1 -35 9 -14 9 -25 13 -25 9 0 -5 -4 -2 -9 6 -5 8
-19 16 -30 18 -24 3 -144 65 -149 76 -2 4 -15 7 -28 7 -14 0 -27 6 -30 14 -3
8 -12 12 -20 9 -8 -3 -14 -1 -14 5 0 5 -18 12 -40 16 -21 3 -44 14 -49 24 -8
13 -10 14 -11 2 0 -10 -3 -11 -8 -3 -4 6 -20 13 -37 16 -53 9 -85 19 -85 27 0
5 -22 13 -48 19 -26 5 -61 15 -77 22 -17 7 -32 13 -35 13 -3 1 -9 4 -15 8 -5
3 -39 9 -75 13 -36 4 -72 9 -80 10 -8 1 -40 6 -70 10 -30 4 -62 9 -70 10 -8 1
-49 6 -90 10 -70 6 -169 30 -180 44 -5 6 -19 9 -82 18 l-38 5 0 -48 c0 -27 5
-167 12 -312 12 -251 13 -263 33 -267 11 -2 65 -9 119 -16 98 -11 151 -8 231
12 62 16 103 26 196 49 l86 21 59 -21 c32 -11 77 -25 99 -31 22 -5 61 -18 87
-29 26 -11 55 -20 65 -20 10 0 30 -6 45 -14 14 -8 43 -19 65 -26 21 -7 40 -16
43 -20 3 -4 17 -13 31 -21 28 -14 123 -71 194 -115 22 -13 47 -27 55 -31 8 -4
36 -22 62 -40 26 -18 51 -33 54 -33 3 0 24 -14 46 -32 22 -17 55 -42 74 -55
19 -12 40 -28 47 -33 13 -12 128 -97 161 -120 37 -25 151 -113 161 -124 6 -6
27 -22 47 -36 21 -14 38 -28 38 -32 0 -3 15 -16 33 -27 19 -11 46 -32 61 -46
84 -77 308 -232 481 -331 28 -15 52 -32 53 -36 2 -4 9 -8 16 -8 11 0 124 -73
136 -89 3 -3 24 -19 48 -35 23 -16 42 -33 42 -37 0 -5 6 -9 14 -9 8 0 27 -11
42 -24 99 -84 207 -155 256 -166 29 -7 64 -18 78 -25 14 -7 63 -21 110 -30 47
-9 96 -23 110 -30 14 -7 49 -18 78 -25 28 -6 52 -15 52 -19 0 -4 17 -13 39
-19 21 -7 44 -19 51 -27 7 -8 19 -15 26 -15 8 0 36 -11 62 -24 26 -13 90 -45
142 -70 52 -25 106 -55 120 -68 31 -28 112 -94 160 -130 19 -14 44 -34 55 -45
11 -10 59 -49 108 -87 48 -37 87 -71 87 -74 0 -4 17 -25 38 -47 20 -23 48 -56
62 -74 27 -34 39 -49 100 -121 64 -75 74 -87 105 -126 17 -21 44 -54 60 -73
47 -55 95 -118 95 -125 0 -4 5 -12 10 -19 34 -40 80 -107 80 -116 0 -6 3 -11
8 -11 4 0 16 -17 27 -37 11 -20 25 -41 30 -48 17 -18 55 -74 55 -80 0 -5 6
-13 35 -48 6 -7 22 -30 35 -52 13 -22 26 -42 29 -45 4 -3 23 -30 43 -60 24
-35 58 -68 93 -90 30 -19 55 -38 55 -42 0 -5 6 -8 14 -8 8 0 24 -11 37 -25 13
-13 29 -25 34 -25 6 0 20 -7 30 -15 74 -57 115 -85 123 -85 5 0 17 -9 27 -20
10 -11 23 -20 29 -20 6 0 24 -12 41 -26 16 -14 44 -34 62 -45 18 -11 33 -25
33 -30 0 -5 4 -9 10 -9 11 0 133 -90 138 -102 2 -5 8 -8 13 -8 5 0 17 -7 27
-15 63 -54 69 -58 157 -106 28 -14 77 -34 110 -44 33 -9 62 -20 65 -24 3 -5
38 -16 78 -26 39 -9 72 -20 72 -24 0 -5 18 -13 41 -20 52 -16 108 -50 199
-124 8 -7 28 -18 43 -26 15 -8 27 -18 27 -21 0 -4 19 -20 43 -35 23 -16 46
-34 50 -42 4 -7 12 -13 18 -13 5 0 19 -8 30 -18 10 -11 32 -25 47 -33 15 -7
37 -24 49 -36 12 -13 27 -23 33 -23 5 0 10 -7 10 -16 0 -9 6 -14 13 -11 6 2
22 -7 35 -20 12 -13 26 -22 31 -19 5 3 20 -5 32 -19 13 -13 28 -25 32 -25 4 0
17 -8 28 -18 10 -11 32 -25 47 -33 15 -7 37 -24 48 -36 12 -12 25 -19 28 -16
3 3 17 -6 30 -20 14 -15 29 -27 34 -27 13 0 112 -99 112 -111 0 -6 4 -7 10 -4
5 3 10 2 10 -3 0 -5 9 -19 20 -32 11 -13 20 -29 20 -37 0 -8 5 -11 11 -8 6 4
13 -2 16 -14 3 -11 9 -18 14 -15 5 2 11 -6 15 -20 3 -14 11 -24 17 -23 6 1 13
-9 15 -22 3 -18 6 -21 12 -11 6 10 11 4 18 -21 6 -19 11 -28 11 -21 2 22 21 2
21 -21 0 -17 2 -19 9 -8 7 11 12 6 19 -20 6 -19 11 -28 11 -21 2 22 21 2 21
-21 0 -17 2 -19 9 -8 8 12 11 9 16 -12 4 -14 12 -25 18 -24 5 1 13 -8 16 -21
3 -13 10 -23 16 -22 5 1 12 -6 15 -15 3 -9 10 -16 15 -15 6 0 13 -14 16 -32 4
-18 7 -27 8 -20 0 7 5 11 10 8 4 -3 6 -18 3 -32 -4 -22 -2 -26 12 -21 16 7 21
-6 16 -48 -2 -16 0 -17 14 -6 14 12 16 9 16 -23 0 -29 -4 -36 -20 -36 -18 0
-26 20 -21 52 0 4 -6 5 -14 2 -18 -7 -20 17 -2 35 7 9 8 12 0 7 -15 -8 -43 3
-43 19 0 6 -9 20 -20 30 -11 10 -17 21 -15 25 3 4 -2 10 -10 14 -8 3 -15 12
-15 20 0 7 -7 17 -16 20 -8 3 -13 10 -9 15 3 5 -4 12 -15 16 -11 3 -20 13 -20
21 0 8 -7 14 -15 14 -8 0 -15 4 -15 10 0 5 -15 24 -32 43 -38 39 -185 200
-273 298 -33 37 -64 67 -69 68 -14 1 -90 54 -99 68 -4 7 -14 13 -22 13 -8 0
-18 6 -22 13 -8 14 -47 37 -95 58 -16 6 -28 15 -28 19 0 7 -48 41 -85 60 -28
14 -71 46 -78 57 -4 7 -13 13 -18 13 -6 0 -41 25 -79 55 -38 30 -73 55 -77 55
-4 0 -25 15 -45 34 -21 19 -45 37 -55 40 -10 4 -33 20 -52 36 -18 17 -37 30
-41 30 -4 0 -19 11 -34 25 -15 14 -35 25 -44 25 -9 0 -31 8 -47 18 -17 11 -55
25 -85 32 -30 7 -64 18 -75 25 -11 7 -47 20 -80 29 -32 10 -68 24 -79 32 -11
8 -26 14 -32 14 -18 0 -144 87 -137 94 4 3 0 6 -8 6 -8 0 -26 10 -41 23 -14
12 -36 29 -48 37 -13 8 -34 25 -48 37 -14 13 -28 23 -33 23 -4 0 -14 6 -21 13
-7 6 -33 25 -58 42 -51 34 -168 118 -190 137 -8 7 -27 18 -42 25 -15 7 -28 17
-28 23 0 5 -7 10 -15 10 -8 0 -23 9 -32 20 -10 11 -22 20 -29 20 -6 0 -19 9
-29 20 -10 11 -22 20 -27 20 -9 0 -62 36 -86 58 -7 6 -17 12 -22 12 -6 0 -85
107 -115 158 -17 29 -69 107 -75 112 -3 3 -28 39 -56 80 -98 145 -147 214
-160 228 -8 7 -14 18 -14 23 0 5 -5 15 -10 22 -46 54 -64 76 -83 100 -12 16
-35 43 -52 61 -16 17 -46 52 -65 76 -19 25 -40 49 -47 53 -7 4 -13 12 -13 17
0 6 -8 18 -17 28 -10 10 -38 43 -63 73 -55 66 -177 189 -187 189 -5 0 -21 12
-38 28 -16 15 -55 47 -85 72 -30 25 -61 51 -68 57 -7 7 -16 13 -20 13 -4 0
-31 22 -60 48 -50 45 -93 71 -172 106 -19 9 -42 20 -50 24 -19 11 -167 82
-240 115 -30 14 -80 31 -110 37 -30 7 -64 19 -75 25 -11 7 -51 18 -90 25 -38
6 -88 19 -110 29 -22 10 -53 21 -69 25 -29 7 -136 84 -136 98 0 5 -9 8 -20 8
-11 0 -23 7 -26 15 -3 8 -21 24 -40 36 -19 11 -40 26 -47 32 -36 33 -238 170
-337 228 -30 18 -57 35 -60 38 -8 9 -62 39 -92 52 -16 6 -28 15 -28 19 0 4
-14 13 -30 19 -16 5 -30 15 -30 20 0 6 -6 11 -14 11 -8 0 -30 15 -48 33 -19
17 -56 48 -84 67 -27 19 -50 38 -52 42 -2 4 -8 8 -14 8 -5 0 -24 15 -42 32
-18 18 -48 45 -67 60 -32 25 -64 51 -111 93 -10 8 -22 15 -28 15 -5 0 -10 4
-10 9 0 4 -20 21 -45 37 -25 15 -45 32 -45 36 0 4 -7 8 -15 8 -8 0 -15 4 -15
8 0 4 -19 20 -42 35 -24 15 -56 38 -72 52 -16 14 -32 25 -35 25 -4 0 -20 12
-37 28 -42 38 -108 82 -122 82 -7 0 -12 4 -12 9 0 5 -13 14 -30 21 -16 7 -30
16 -30 21 0 5 -6 9 -12 9 -7 0 -53 27 -103 60 -49 33 -95 60 -102 60 -6 0 -16
6 -20 13 -10 15 -107 63 -145 73 -16 3 -28 10 -28 14 0 4 -26 13 -58 19 -32 6
-67 17 -77 25 -11 7 -39 17 -63 21 -23 4 -48 12 -55 18 -23 22 -59 24 -122 9
-35 -9 -92 -21 -175 -36 -14 -3 -52 -12 -85 -21 -55 -15 -69 -15 -180 0 -66 9
-128 19 -137 21 -15 5 -18 -2 -18 -45 0 -27 -4 -52 -9 -55 -10 -6 -292 32
-300 40 -4 3 -11 63 -16 132 l-11 127 -134 136 c-74 74 -164 168 -200 209 -36
40 -74 84 -85 96 -11 12 -45 50 -75 84 -30 34 -70 78 -87 96 -18 19 -33 36
-33 39 0 2 -15 19 -33 37 -18 18 -48 54 -66 81 -19 26 -38 47 -43 47 -4 0 -8
7 -8 15 0 8 -4 15 -8 15 -5 0 -35 36 -67 80 -32 44 -62 80 -67 80 -4 0 -8 5
-8 10 0 6 -13 24 -30 40 -16 16 -30 34 -30 39 0 6 -6 14 -13 18 -7 4 -28 28
-47 53 -47 62 -86 100 -145 140 -27 19 -51 37 -53 42 -2 4 -9 8 -16 8 -7 0
-21 9 -31 20 -10 11 -23 20 -30 20 -7 0 -20 9 -30 20 -10 11 -24 20 -31 20 -7
0 -14 3 -16 8 -5 11 -83 62 -95 62 -6 0 -13 7 -17 15 -3 8 -13 15 -22 15 -9 0
-27 9 -41 20 -14 11 -31 20 -37 20 -6 0 -47 18 -90 40 -43 22 -84 40 -91 40
-7 0 -18 7 -25 15 -7 8 -28 17 -47 21 -19 4 -37 12 -39 19 -3 7 -22 16 -42 20
-20 3 -46 12 -57 19 -11 7 -42 18 -70 25 -27 7 -59 18 -70 25 -11 7 -38 16
-60 20 -22 4 -49 13 -60 21 -29 18 -421 66 -465 57 -8 -2 -80 -10 -160 -18
-286 -29 -332 -35 -350 -41 -8 -3 -24 -8 -35 -10 -11 -2 -21 -8 -23 -13 -2 -6
-15 -10 -28 -10 -13 0 -24 -4 -24 -10 0 -5 -6 -10 -13 -10 -17 0 -150 -68
-158 -81 -3 -5 -16 -11 -27 -12 -12 -1 -22 -7 -22 -13 0 -7 -16 -18 -35 -24
-19 -6 -35 -15 -35 -20 0 -4 -11 -11 -25 -14 -14 -4 -25 -11 -25 -16 0 -6 -7
-10 -15 -10 -8 0 -15 -5 -15 -11 0 -5 -4 -8 -9 -4 -5 3 -17 -3 -27 -12 -19
-19 -74 -25 -75 -8 0 5 -4 1 -9 -10 -8 -19 -8 -19 -18 5 l-11 25 -1 -25 c0
-20 -2 -22 -10 -10 -5 8 -10 10 -10 4 0 -10 -67 -10 -112 0 -10 2 -18 1 -18
-4 0 -12 -164 -3 -200 10 -3 1 -8 2 -12 1 -5 0 -8 3 -8 9 0 5 -7 7 -15 4 -8
-4 -15 -2 -15 3 0 5 -10 9 -22 10 -11 1 -25 8 -29 15 -7 11 -9 11 -9 0 0 -7
-4 -10 -10 -7 -5 3 -10 17 -10 31 0 16 4 23 11 18 9 -5 10 16 5 82 -4 49 -9
90 -10 91 -1 1 -13 5 -27 7 -13 2 -26 5 -29 6 -3 2 -8 2 -12 1 -5 0 -8 5 -8
13 0 10 11 13 35 11 20 -1 35 3 35 9 0 6 -29 273 -65 594 -36 320 -65 584 -65
586 0 3 15 3 33 1 17 -2 68 -6 112 -10z m-1708 -567 c-3 -8 -6 -5 -6 6 -1 11
2 17 5 13 3 -3 4 -12 1 -19z m170 -155 c-3 -10 -5 -4 -5 12 0 17 2 24 5 18 2
-7 2 -21 0 -30z m30 -35 c-3 -7 -5 -2 -5 12 0 14 2 19 5 13 2 -7 2 -19 0 -25z
m178 -184 c71 -544 95 -741 95 -763 0 -47 -8 -15 -19 74 -12 101 -87 682 -101
790 -11 79 -12 111 -5 104 2 -3 16 -95 30 -205z m-148 154 c-3 -7 -5 -2 -5 12
0 14 2 19 5 13 2 -7 2 -19 0 -25z m80 -70 c-3 -8 -6 -5 -6 6 -1 11 2 17 5 13
3 -3 4 -12 1 -19z m30 -30 c-3 -7 -5 -2 -5 12 0 14 2 19 5 13 2 -7 2 -19 0
-25z m200 10 c-3 -8 -6 -5 -6 6 -1 11 2 17 5 13 3 -3 4 -12 1 -19z m100 -40
c-3 -8 -6 -5 -6 6 -1 11 2 17 5 13 3 -3 4 -12 1 -19z m-237 -4 c0 -8 -4 -12
-10 -9 -5 3 -10 10 -10 16 0 5 5 9 10 9 6 0 10 -7 10 -16z m25 -13 c3 -5 1
-12 -5 -16 -5 -3 -10 1 -10 9 0 18 6 21 15 7z m22 -33 c-3 -7 -5 -2 -5 12 0
14 2 19 5 13 2 -7 2 -19 0 -25z m300 10 c-3 -8 -6 -5 -6 6 -1 11 2 17 5 13 3
-3 4 -12 1 -19z m-267 -24 c0 -8 -4 -12 -10 -9 -5 3 -10 10 -10 16 0 5 5 9 10
9 6 0 10 -7 10 -16z m30 -26 c0 -5 -4 -8 -10 -8 -5 0 -10 10 -10 23 0 18 2 19
10 7 5 -8 10 -18 10 -22z m337 10 c-3 -8 -6 -5 -6 6 -1 11 2 17 5 13 3 -3 4
-12 1 -19z m33 6 c0 -8 -5 -12 -10 -9 -6 4 -8 11 -5 16 9 14 15 11 15 -7z
m-353 -26 c-3 -8 -6 -5 -6 6 -1 11 2 17 5 13 3 -3 4 -12 1 -19z m400 -10 c-3
-8 -6 -5 -6 6 -1 11 2 17 5 13 3 -3 4 -12 1 -19z m33 2 c0 -5 -5 -10 -11 -10
-5 0 -7 5 -4 10 3 6 8 10 11 10 2 0 4 -4 4 -10z m49 -19 c0 -9 -3 -11 -5 -4
-3 7 -12 9 -20 6 -8 -3 -14 1 -14 10 0 10 7 13 20 10 11 -3 20 -13 19 -22z
m-452 -3 c-3 -8 -6 -5 -6 6 -1 11 2 17 5 13 3 -3 4 -12 1 -19z m33 -4 c0 -8
-4 -12 -10 -9 -5 3 -10 13 -10 21 0 8 5 12 10 9 6 -3 10 -13 10 -21z m437 4
c-3 -8 -6 -5 -6 6 -1 11 2 17 5 13 3 -3 4 -12 1 -19z m30 -20 c-3 -8 -6 -5 -6
6 -1 11 2 17 5 13 3 -3 4 -12 1 -19z m-437 -9 c0 -5 -4 -9 -10 -9 -5 0 -10 7
-10 16 0 8 5 12 10 9 6 -3 10 -10 10 -16z m470 5 c0 -8 -5 -12 -10 -9 -6 4 -8
11 -5 16 9 14 15 11 15 -7z m50 -8 c0 -6 -9 -12 -20 -12 -12 0 -20 7 -20 17 0
12 6 16 20 12 11 -3 20 -11 20 -17z m-503 -23 c-3 -10 -5 -4 -5 12 0 17 2 24
5 18 2 -7 2 -21 0 -30z m533 16 c0 -5 -4 -9 -10 -9 -5 0 -10 7 -10 16 0 8 5
12 10 9 6 -3 10 -10 10 -16z m17 -11 c-3 -8 -6 -5 -6 6 -1 11 2 17 5 13 3 -3
4 -12 1 -19z m33 6 c0 -8 -4 -12 -10 -9 -5 3 -10 10 -10 16 0 5 5 9 10 9 6 0
10 -7 10 -16z m17 -16 c-3 -7 -5 -2 -5 12 0 14 2 19 5 13 2 -7 2 -19 0 -25z
m33 2 c0 -11 -2 -20 -4 -20 -2 0 -6 9 -9 20 -3 11 -1 20 4 20 5 0 9 -9 9 -20z
m17 -12 c-3 -7 -5 -2 -5 12 0 14 2 19 5 13 2 -7 2 -19 0 -25z m-617 6 c0 -8
-4 -12 -10 -9 -5 3 -10 10 -10 16 0 5 5 9 10 9 6 0 10 -7 10 -16z m30 -26 c0
-5 -4 -8 -10 -8 -5 0 -10 10 -10 23 0 18 2 19 10 7 5 -8 10 -18 10 -22z m617
10 c-3 -8 -6 -5 -6 6 -1 11 2 17 5 13 3 -3 4 -12 1 -19z m33 2 c0 -5 -4 -10
-10 -10 -5 0 -10 5 -10 10 0 6 5 10 10 10 6 0 10 -4 10 -10z m17 -12 c-3 -8
-6 -5 -6 6 -1 11 2 17 5 13 3 -3 4 -12 1 -19z m33 1 c0 -11 -4 -17 -10 -14 -5
3 -10 13 -10 21 0 8 5 14 10 14 6 0 10 -9 10 -21z m36 8 c8 3 14 -1 14 -9 0
-7 -9 -14 -20 -14 -14 0 -20 7 -19 21 0 11 3 15 5 8 3 -7 12 -9 20 -6z m-719
-19 c-3 -8 -6 -5 -6 6 -1 11 2 17 5 13 3 -3 4 -12 1 -19z m783 -2 c0 -6 -9
-12 -20 -13 -13 -1 -20 4 -20 17 0 13 5 17 20 13 11 -3 20 -11 20 -17z m30 -1
c0 -8 -4 -15 -10 -15 -5 0 -10 7 -10 15 0 8 5 15 10 15 6 0 10 -7 10 -15z m17
-22 c-3 -10 -5 -4 -5 12 0 17 2 24 5 18 2 -7 2 -21 0 -30z m-800 -5 c-3 -7 -5
-2 -5 12 0 14 2 19 5 13 2 -7 2 -19 0 -25z m33 -4 c0 -8 -4 -12 -10 -9 -5 3
-10 13 -10 21 0 8 5 12 10 9 6 -3 10 -13 10 -21z m797 -6 c-3 -7 -5 -2 -5 12
0 14 2 19 5 13 2 -7 2 -19 0 -25z m33 0 c0 -5 -4 -8 -10 -8 -5 0 -10 10 -10
23 0 18 2 19 10 7 5 -8 10 -18 10 -22z m-813 -10 c-3 -7 -5 -2 -5 12 0 14 2
19 5 13 2 -7 2 -19 0 -25z m33 -6 c0 -15 -2 -15 -10 -2 -13 20 -13 33 0 25 6
-3 10 -14 10 -23z m50 -17 c0 -15 -2 -17 -9 -6 -5 7 -14 10 -20 7 -6 -4 -11
-1 -11 6 0 8 9 14 20 14 14 0 20 -7 20 -21z m30 0 c0 -8 -4 -17 -10 -20 -6 -4
-10 5 -10 20 0 15 4 24 10 20 6 -3 10 -12 10 -20z m17 -22 c-3 -10 -5 -4 -5
12 0 17 2 24 5 18 2 -7 2 -21 0 -30z m33 -11 c0 -7 -4 -10 -10 -7 -5 3 -10 16
-10 28 0 18 2 19 10 7 5 -8 10 -21 10 -28z m1400 2 c0 -14 -62 -14 -72 1 -5 6
-8 3 -8 -8 0 -15 -9 -17 -60 -16 -36 1 -60 6 -60 13 0 7 -3 7 -8 1 -14 -20
-42 -17 -42 4 0 19 6 21 68 18 37 -1 70 -6 74 -12 5 -6 8 -3 8 7 0 13 8 16 40
15 22 -2 40 2 40 8 0 14 20 -17 20 -31z m-1703 4 c-3 -8 -6 -5 -6 6 -1 11 2
17 5 13 3 -3 4 -12 1 -19z m1360 -15 c-3 -10 -5 -4 -5 12 0 17 2 24 5 18 2 -7
2 -21 0 -30z m33 6 c0 -10 -4 -19 -10 -19 -5 0 -10 12 -10 26 0 14 4 23 10 19
6 -3 10 -15 10 -26z m17 -6 c-3 -10 -5 -4 -5 12 0 17 2 24 5 18 2 -7 2 -21 0
-30z m-1398 -232 c18 -134 29 -246 27 -249 -10 -9 -15 22 -41 243 -14 121 -28
231 -31 245 -4 16 -2 22 4 15 6 -5 24 -120 41 -254z m21 249 c0 -5 -4 -10 -10
-10 -5 0 -10 5 -10 10 0 6 5 10 10 10 6 0 10 -4 10 -10z m17 -12 c-3 -8 -6 -5
-6 6 -1 11 2 17 5 13 3 -3 4 -12 1 -19z m33 1 c0 -5 -4 -9 -10 -9 -5 0 -10 7
-10 16 0 8 5 12 10 9 6 -3 10 -10 10 -16z m17 -1 c-3 -8 -6 -5 -6 6 -1 11 2
17 5 13 3 -3 4 -12 1 -19z m252 -3 c0 -11 -3 -14 -6 -7 -4 10 -8 10 -19 1 -11
-9 -14 -8 -14 8 0 12 7 19 20 19 14 0 20 -7 19 -21z m1091 3 c0 -19 -2 -20
-10 -8 -13 19 -13 30 0 30 6 0 10 -10 10 -22z m-1310 -4 c0 -8 -4 -12 -10 -9
-5 3 -10 10 -10 16 0 5 5 9 10 9 6 0 10 -7 10 -16z m17 -6 c-3 -8 -6 -5 -6 6
-1 11 2 17 5 13 3 -3 4 -12 1 -19z m33 7 c0 -8 -4 -15 -10 -15 -5 0 -10 7 -10
15 0 8 5 15 10 15 6 0 10 -7 10 -15z m17 -17 c-3 -7 -5 -2 -5 12 0 14 2 19 5
13 2 -7 2 -19 0 -25z m62 -229 c34 -269 35 -288 22 -273 -4 5 -20 114 -35 243
-15 129 -30 248 -33 265 -4 21 -2 28 5 21 6 -5 24 -121 41 -256z m121 240 c0
-11 -4 -17 -10 -14 -5 3 -10 13 -10 21 0 8 5 14 10 14 6 0 10 -9 10 -21z m17
-16 c-3 -10 -5 -4 -5 12 0 17 2 24 5 18 2 -7 2 -21 0 -30z m33 -11 c0 -7 -4
-10 -10 -7 -5 3 -10 16 -10 28 0 18 2 19 10 7 5 -8 10 -21 10 -28z m17 -14
c-3 -7 -5 -2 -5 12 0 14 2 19 5 13 2 -7 2 -19 0 -25z m43 21 c0 10 3 11 13 2
8 -6 17 -8 20 -4 4 3 7 -5 7 -18 0 -13 -4 -19 -8 -14 -10 14 -42 15 -42 1 0
-6 -5 -3 -11 7 -12 21 -1 46 12 26 7 -12 9 -12 9 0z m118 -14 c26 -2 47 -4 47
-5 0 -2 15 -3 135 -14 81 -6 100 -15 99 -45 -1 -17 -3 -20 -6 -8 -4 14 -8 16
-19 6 -9 -7 -14 -8 -14 -1 0 6 -11 9 -25 7 -14 -1 -25 1 -25 6 0 5 -7 6 -15 3
-9 -4 -15 0 -15 7 0 9 -3 10 -8 4 -11 -15 -42 -18 -42 -3 0 9 -3 9 -10 -2 -7
-11 -10 -11 -10 -2 0 7 -5 10 -11 6 -6 -3 -15 0 -20 7 -5 9 -9 10 -9 2 0 -15
-40 -4 -40 11 0 7 -3 7 -8 1 -9 -13 -42 -16 -42 -4 0 5 -7 6 -15 3 -10 -4 -15
0 -15 16 0 12 4 19 11 15 6 -4 32 -8 57 -10z m325 -63 c12 -1 31 -3 42 -6 11
-2 26 -5 33 -5 7 -1 12 -14 11 -33 -1 -18 -3 -25 -6 -16 -2 10 -10 15 -19 11
-8 -3 -14 -1 -14 5 0 5 -11 8 -25 7 -14 -2 -25 1 -25 6 0 5 -6 8 -12 7 -8 -2
-14 9 -15 27 -1 17 1 23 3 14 3 -9 15 -17 27 -17z m-1204 -642 c23 -179 44
-335 46 -347 3 -13 1 -23 -4 -23 -4 0 -11 28 -15 63 -4 34 -23 181 -42 326
-32 252 -39 320 -30 310 2 -2 23 -150 45 -329z m-22 298 c-3 -8 -6 -5 -6 6 -1
11 2 17 5 13 3 -3 4 -12 1 -19z m30 0 c-3 -8 -6 -5 -6 6 -1 11 2 17 5 13 3 -3
4 -12 1 -19z m20 0 c-3 -8 -6 -5 -6 6 -1 11 2 17 5 13 3 -3 4 -12 1 -19z m33
6 c0 -8 -5 -12 -10 -9 -6 4 -8 11 -5 16 9 14 15 11 15 -7z m50 -10 c0 -8 -4
-12 -10 -9 -5 3 -10 10 -10 16 0 5 5 9 10 9 6 0 10 -7 10 -16z m17 -6 c-3 -8
-6 -5 -6 6 -1 11 2 17 5 13 3 -3 4 -12 1 -19z m33 2 c0 -5 -4 -10 -10 -10 -5
0 -10 5 -10 10 0 6 5 10 10 10 6 0 10 -4 10 -10z m17 -12 c-3 -8 -6 -5 -6 6
-1 11 2 17 5 13 3 -3 4 -12 1 -19z m73 -320 c39 -308 45 -377 35 -366 -6 6
-85 639 -84 675 1 53 8 7 49 -309z m77 300 c-3 -7 -5 -2 -5 12 0 14 2 19 5 13
2 -7 2 -19 0 -25z m33 7 c0 -8 -4 -15 -10 -15 -5 0 -10 7 -10 15 0 8 5 15 10
15 6 0 10 -7 10 -15z m17 -7 c-3 -8 -6 -5 -6 6 -1 11 2 17 5 13 3 -3 4 -12 1
-19z m33 -4 c0 -8 -4 -12 -10 -9 -5 3 -10 10 -10 16 0 5 5 9 10 9 6 0 10 -7
10 -16z m30 4 c0 6 5 12 10 12 13 0 13 -37 0 -42 -7 -2 -4 -62 10 -177 12 -95
19 -175 16 -178 -9 -9 -13 14 -35 193 -24 198 -25 216 -11 194 6 -10 10 -11
10 -2z m37 -20 c-3 -7 -5 -2 -5 12 0 14 2 19 5 13 2 -7 2 -19 0 -25z m33 7 c0
-8 -4 -15 -10 -15 -5 0 -10 7 -10 15 0 8 5 15 10 15 6 0 10 -7 10 -15z m17
-17 c-3 -7 -5 -2 -5 12 0 14 2 19 5 13 2 -7 2 -19 0 -25z m-780 -185 c-3 -10
-5 -4 -5 12 0 17 2 24 5 18 2 -7 2 -21 0 -30z m-100 5 c-3 -8 -6 -5 -6 6 -1
11 2 17 5 13 3 -3 4 -12 1 -19z m30 0 c-3 -8 -6 -5 -6 6 -1 11 2 17 5 13 3 -3
4 -12 1 -19z m20 0 c-3 -8 -6 -5 -6 6 -1 11 2 17 5 13 3 -3 4 -12 1 -19z m76
7 c4 -8 2 -17 -3 -20 -6 -4 -10 3 -10 14 0 25 6 27 13 6z m3631 -30 c4 -19 10
-35 14 -36 4 0 16 -2 27 -4 11 -3 35 -5 53 -7 18 -1 36 -6 39 -11 5 -9 33
-293 33 -345 0 -27 -3 -32 -17 -28 -10 2 -38 6 -63 8 -44 3 -45 2 -46 -27 -2
-62 -4 -76 -14 -70 -5 3 -12 28 -16 56 -7 53 -6 52 -88 63 -21 3 -41 8 -45 11
-8 8 -38 346 -33 363 2 7 12 10 21 8 9 -3 34 -6 56 -8 36 -3 40 -1 43 22 7 61
25 64 36 5z m-3557 3 c-3 -8 -6 -5 -6 6 -1 11 2 17 5 13 3 -3 4 -12 1 -19z
m33 -40 c0 -51 -5 -47 -14 10 -4 29 -3 41 4 37 5 -3 10 -25 10 -47z m7 -95
c-3 -10 -5 -4 -5 12 0 17 2 24 5 18 2 -7 2 -21 0 -30z m10 -80 c-3 -10 -5 -4
-5 12 0 17 2 24 5 18 2 -7 2 -21 0 -30z m10 -80 c-3 -10 -5 -4 -5 12 0 17 2
24 5 18 2 -7 2 -21 0 -30z m17 -86 c5 -27 4 -37 -3 -32 -6 3 -11 22 -11 42 0
44 5 41 14 -10z m-219 13 c3 -5 1 -10 -4 -10 -6 0 -11 5 -11 10 0 6 2 10 4 10
3 0 8 -4 11 -10z m22 -12 c-3 -8 -6 -5 -6 6 -1 11 2 17 5 13 3 -3 4 -12 1 -19z
m82 -57 c1 -35 -5 -22 -12 24 -5 28 -4 34 3 20 5 -11 9 -31 9 -44z m18 27 c-3
-7 -5 -2 -5 12 0 14 2 19 5 13 2 -7 2 -19 0 -25z m20 10 c-3 -8 -6 -5 -6 6 -1
11 2 17 5 13 3 -3 4 -12 1 -19z m33 6 c0 -8 -5 -12 -10 -9 -6 4 -8 11 -5 16 9
14 15 11 15 -7z m17 -6 c-3 -8 -6 -5 -6 6 -1 11 2 17 5 13 3 -3 4 -12 1 -19z
m170 0 c-3 -8 -6 -5 -6 6 -1 11 2 17 5 13 3 -3 4 -12 1 -19z m28 13 c3 -5 1
-12 -5 -16 -5 -3 -10 1 -10 9 0 18 6 21 15 7z m22 -23 c-3 -8 -6 -5 -6 6 -1
11 2 17 5 13 3 -3 4 -12 1 -19z m20 0 c-3 -8 -6 -5 -6 6 -1 11 2 17 5 13 3 -3
4 -12 1 -19z m44 7 c6 13 7 2 3 -31 -3 -27 2 -101 10 -162 16 -111 20 -180 12
-171 -7 6 -46 324 -45 357 1 21 2 23 7 7 l5 -20 8 20z m39 -11 c0 -8 -5 -12
-10 -9 -6 4 -8 11 -5 16 9 14 15 11 15 -7z m17 -16 c-3 -7 -5 -2 -5 12 0 14 2
19 5 13 2 -7 2 -19 0 -25z m33 11 c0 -11 -4 -17 -10 -14 -5 3 -10 13 -10 21 0
8 5 14 10 14 6 0 10 -9 10 -21z m-453 -106 c-3 -10 -5 -4 -5 12 0 17 2 24 5
18 2 -7 2 -21 0 -30z m10 -85 c-3 -7 -5 -2 -5 12 0 14 2 19 5 13 2 -7 2 -19 0
-25z m10 -70 c-3 -7 -5 -2 -5 12 0 14 2 19 5 13 2 -7 2 -19 0 -25z m10 -80
c-3 -7 -5 -2 -5 12 0 14 2 19 5 13 2 -7 2 -19 0 -25z m10 -70 c-3 -8 -6 -5 -6
6 -1 11 2 17 5 13 3 -3 4 -12 1 -19z m4770 -300 c-3 -7 -5 -2 -5 12 0 14 2 19
5 13 2 -7 2 -19 0 -25z m-510 -75 c-3 -10 -5 -4 -5 12 0 17 2 24 5 18 2 -7 2
-21 0 -30z m1327 -18 c65 -8 121 -17 124 -20 3 -3 12 -110 19 -238 7 -128 24
-432 38 -677 14 -245 26 -470 27 -500 l3 -55 -40 0 c-37 1 -87 7 -160 20 -16
3 -45 7 -62 10 -20 4 -33 12 -33 21 0 8 -4 13 -9 9 -12 -7 -18 40 -31 265 -6
102 -24 405 -40 674 -21 349 -27 493 -19 502 6 7 23 11 37 9 15 -3 80 -12 146
-20z m-807 -67 c-3 -7 -5 -2 -5 12 0 14 2 19 5 13 2 -7 2 -19 0 -25z m-510
-100 c-2 -13 -4 -3 -4 22 0 25 2 35 4 23 2 -13 2 -33 0 -45z m30 -30 c-3 -8
-6 -5 -6 6 -1 11 2 17 5 13 3 -3 4 -12 1 -19z m490 -15 c-3 -10 -5 -4 -5 12 0
17 2 24 5 18 2 -7 2 -21 0 -30z m-510 -75 c-2 -18 -4 -4 -4 32 0 36 2 50 4 33
2 -18 2 -48 0 -65z m80 40 c-3 -8 -6 -5 -6 6 -1 11 2 17 5 13 3 -3 4 -12 1
-19z m60 -100 c-3 -8 -6 -5 -6 6 -1 11 2 17 5 13 3 -3 4 -12 1 -19z m-130 -75
c-3 -10 -5 -2 -5 17 0 19 2 27 5 18 2 -10 2 -26 0 -35z m511 -9 c-3 -27 -4
-26 -9 8 -3 22 -1 34 4 29 5 -5 7 -21 5 -37z m-321 -26 c-2 -13 -4 -5 -4 17
-1 22 1 32 4 23 2 -10 2 -28 0 -40z m-160 -5 c-3 -10 -5 -4 -5 12 0 17 2 24 5
18 2 -7 2 -21 0 -30z m80 5 c-3 -8 -6 -5 -6 6 -1 11 2 17 5 13 3 -3 4 -12 1
-19z m283 -188 c6 -85 17 -252 25 -370 8 -118 17 -244 21 -280 3 -36 3 -62 -1
-58 -3 3 -13 91 -20 195 -30 396 -45 629 -44 668 2 58 7 20 19 -155z m-383 93
c-2 -16 -4 -3 -4 27 0 30 2 43 4 28 2 -16 2 -40 0 -55z m50 40 c-3 -10 -5 -4
-5 12 0 17 2 24 5 18 2 -7 2 -21 0 -30z m480 -10 c-3 -10 -5 -4 -5 12 0 17 2
24 5 18 2 -7 2 -21 0 -30z m-370 -5 c-3 -8 -6 -5 -6 6 -1 11 2 17 5 13 3 -3 4
-12 1 -19z m50 0 c-3 -8 -6 -5 -6 6 -1 11 2 17 5 13 3 -3 4 -12 1 -19z m-180
-10 c-3 -8 -6 -5 -6 6 -1 11 2 17 5 13 3 -3 4 -12 1 -19z m897 -52 c3 -28 15
-208 27 -401 12 -192 25 -354 29 -359 5 -5 28 -11 52 -13 70 -8 78 -16 78 -77
l0 -53 -66 5 -65 4 6 -68 c3 -38 17 -244 30 -459 14 -214 32 -498 41 -630 24
-358 24 -367 -3 -371 -28 -5 -25 -36 -68 701 -44 734 -50 834 -56 839 -2 2
-20 6 -39 9 -65 9 -90 19 -90 36 0 9 -3 34 -7 55 l-6 39 66 -5 67 -6 0 47 c0
25 -11 206 -24 401 -14 195 -23 358 -20 361 2 4 13 5 23 2 15 -4 21 -17 25
-57z m-687 7 c-3 -10 -5 -2 -5 17 0 19 2 27 5 18 2 -10 2 -26 0 -35z m-160 15
c-3 -8 -6 -5 -6 6 -1 11 2 17 5 13 3 -3 4 -12 1 -19z m320 -20 c-3 -7 -5 -2
-5 12 0 14 2 19 5 13 2 -7 2 -19 0 -25z m160 0 c-3 -7 -5 -2 -5 12 0 14 2 19
5 13 2 -7 2 -19 0 -25z m-370 -35 c-3 -10 -5 -2 -5 17 0 19 2 27 5 18 2 -10 2
-26 0 -35z m-130 5 c-3 -7 -5 -2 -5 12 0 14 2 19 5 13 2 -7 2 -19 0 -25z m160
0 c-3 -7 -5 -2 -5 12 0 14 2 19 5 13 2 -7 2 -19 0 -25z m400 10 c-3 -8 -6 -5
-6 6 -1 11 2 17 5 13 3 -3 4 -12 1 -19z m-590 -10 c-3 -8 -6 -5 -6 6 -1 11 2
17 5 13 3 -3 4 -12 1 -19z m80 -10 c-3 -7 -5 -2 -5 12 0 14 2 19 5 13 2 -7 2
-19 0 -25z m-100 -70 c-2 -18 -4 -6 -4 27 0 33 2 48 4 33 2 -15 2 -42 0 -60z
m130 30 c-2 -13 -4 -5 -4 17 -1 22 1 32 4 23 2 -10 2 -28 0 -40z m30 10 c-3
-8 -6 -5 -6 6 -1 11 2 17 5 13 3 -3 4 -12 1 -19z m50 0 c-3 -8 -6 -5 -6 6 -1
11 2 17 5 13 3 -3 4 -12 1 -19z m30 -10 c-3 -8 -6 -5 -6 6 -1 11 2 17 5 13 3
-3 4 -12 1 -19z m160 -10 c-3 -7 -5 -2 -5 12 0 14 2 19 5 13 2 -7 2 -19 0 -25z
m-370 -15 c-3 -10 -5 -4 -5 12 0 17 2 24 5 18 2 -7 2 -21 0 -30z m50 -25 c-2
-13 -4 -3 -4 22 0 25 2 35 4 23 2 -13 2 -33 0 -45z m400 30 c-3 -7 -5 -2 -5
12 0 14 2 19 5 13 2 -7 2 -19 0 -25z m-370 -40 c-2 -13 -4 -5 -4 17 -1 22 1
32 4 23 2 -10 2 -28 0 -40z m80 -5 c-3 -10 -5 -4 -5 12 0 17 2 24 5 18 2 -7 2
-21 0 -30z m210 -15 c-2 -13 -4 -5 -4 17 -1 22 1 32 4 23 2 -10 2 -28 0 -40z
m30 -5 c-3 -10 -5 -4 -5 12 0 17 2 24 5 18 2 -7 2 -21 0 -30z m80 5 c-3 -7 -5
-2 -5 12 0 14 2 19 5 13 2 -7 2 -19 0 -25z m-370 -30 c-3 -7 -5 -2 -5 12 0 14
2 19 5 13 2 -7 2 -19 0 -25z m-130 -40 c-2 -13 -4 -3 -4 22 0 25 2 35 4 23 2
-13 2 -33 0 -45z m80 10 c-2 -13 -4 -5 -4 17 -1 22 1 32 4 23 2 -10 2 -28 0
-40z m130 0 c-2 -13 -4 -5 -4 17 -1 22 1 32 4 23 2 -10 2 -28 0 -40z m240 20
c-3 -7 -5 -2 -5 12 0 14 2 19 5 13 2 -7 2 -19 0 -25z m160 0 c-3 -7 -5 -2 -5
12 0 14 2 19 5 13 2 -7 2 -19 0 -25z m-80 -20 c-3 -7 -5 -2 -5 12 0 14 2 19 5
13 2 -7 2 -19 0 -25z m-130 -35 c-3 -10 -5 -2 -5 17 0 19 2 27 5 18 2 -10 2
-26 0 -35z m160 -5 c-2 -13 -4 -5 -4 17 -1 22 1 32 4 23 2 -10 2 -28 0 -40z
m-400 10 c-3 -7 -5 -2 -5 12 0 14 2 19 5 13 2 -7 2 -19 0 -25z m290 0 c-3 -7
-5 -2 -5 12 0 14 2 19 5 13 2 -7 2 -19 0 -25z m190 -5 c-3 -10 -5 -4 -5 12 0
17 2 24 5 18 2 -7 2 -21 0 -30z m-610 -35 c-2 -13 -4 -5 -4 17 -1 22 1 32 4
23 2 -10 2 -28 0 -40z m210 30 c-3 -8 -6 -5 -6 6 -1 11 2 17 5 13 3 -3 4 -12
1 -19z m-180 -45 c-3 -10 -5 -2 -5 17 0 19 2 27 5 18 2 -10 2 -26 0 -35z m370
-20 c-3 -10 -5 -2 -5 17 0 19 2 27 5 18 2 -10 2 -26 0 -35z m-420 -40 c-2 -16
-4 -3 -4 27 0 30 2 43 4 28 2 -16 2 -40 0 -55z m180 55 c-3 -8 -6 -5 -6 6 -1
11 2 17 5 13 3 -3 4 -12 1 -19z m-50 -20 c-3 -8 -6 -5 -6 6 -1 11 2 17 5 13 3
-3 4 -12 1 -19z m80 -25 c-3 -10 -5 -2 -5 17 0 19 2 27 5 18 2 -10 2 -26 0
-35z m240 0 c-3 -10 -5 -2 -5 17 0 19 2 27 5 18 2 -10 2 -26 0 -35z m160 -25
c-2 -13 -4 -5 -4 17 -1 22 1 32 4 23 2 -10 2 -28 0 -40z m-580 20 c-3 -8 -6
-5 -6 6 -1 11 2 17 5 13 3 -3 4 -12 1 -19z m50 -35 c-3 -10 -5 -2 -5 17 0 19
2 27 5 18 2 -10 2 -26 0 -35z m30 25 c-3 -8 -6 -5 -6 6 -1 11 2 17 5 13 3 -3
4 -12 1 -19z m130 -40 c-2 -13 -4 -3 -4 22 0 25 2 35 4 23 2 -13 2 -33 0 -45z
m160 -15 c-2 -16 -4 -3 -4 27 0 30 2 43 4 28 2 -16 2 -40 0 -55z m80 -10 c-2
-16 -4 -3 -4 27 0 30 2 43 4 28 2 -16 2 -40 0 -55z m80 10 c-2 -16 -4 -5 -4
22 0 28 2 40 4 28 2 -13 2 -35 0 -50z m1770 0 c-2 -16 -4 -5 -4 22 0 28 2 40
4 28 2 -13 2 -35 0 -50z m-2140 20 c-3 -10 -5 -4 -5 12 0 17 2 24 5 18 2 -7 2
-21 0 -30z m240 -70 c-2 -21 -4 -6 -4 32 0 39 2 55 4 38 2 -18 2 -50 0 -70z
m210 35 c-2 -13 -4 -3 -4 22 0 25 2 35 4 23 2 -13 2 -33 0 -45z m-130 15 c-3
-10 -5 -4 -5 12 0 17 2 24 5 18 2 -7 2 -21 0 -30z m-400 5 c-3 -8 -6 -5 -6 6
-1 11 2 17 5 13 3 -3 4 -12 1 -19z m-80 -20 c-3 -7 -5 -2 -5 12 0 14 2 19 5
13 2 -7 2 -19 0 -25z m30 0 c-3 -7 -5 -2 -5 12 0 14 2 19 5 13 2 -7 2 -19 0
-25z m530 -35 c-2 -16 -4 -5 -4 22 0 28 2 40 4 28 2 -13 2 -35 0 -50z m-580
-25 c-2 -18 -4 -6 -4 27 0 33 2 48 4 33 2 -15 2 -42 0 -60z m130 5 c-2 -16 -4
-3 -4 27 0 30 2 43 4 28 2 -16 2 -40 0 -55z m80 35 c-3 -7 -5 -2 -5 12 0 14 2
19 5 13 2 -7 2 -19 0 -25z m-130 -25 c-3 -10 -5 -2 -5 17 0 19 2 27 5 18 2
-10 2 -26 0 -35z m450 15 c-3 -8 -6 -5 -6 6 -1 11 2 17 5 13 3 -3 4 -12 1 -19z
m-480 -20 c-3 -8 -6 -5 -6 6 -1 11 2 17 5 13 3 -3 4 -12 1 -19z m110 0 c-3 -8
-6 -5 -6 6 -1 11 2 17 5 13 3 -3 4 -12 1 -19z m290 -25 c-3 -10 -5 -2 -5 17 0
19 2 27 5 18 2 -10 2 -26 0 -35z m-210 -25 c-2 -13 -4 -3 -4 22 0 25 2 35 4
23 2 -13 2 -33 0 -45z m160 -15 c-2 -16 -4 -3 -4 27 0 30 2 43 4 28 2 -16 2
-40 0 -55z m160 -5 c-2 -13 -4 -5 -4 17 -1 22 1 32 4 23 2 -10 2 -28 0 -40z
m20 30 c-3 -8 -6 -5 -6 6 -1 11 2 17 5 13 3 -3 4 -12 1 -19z m-470 -20 c-3 -7
-5 -2 -5 12 0 14 2 19 5 13 2 -7 2 -19 0 -25z m3604 30 c1 -2 7 -194 13 -428
l11 -425 60 -10 c33 -5 66 -14 73 -18 8 -6 12 -39 12 -108 0 -87 -2 -99 -17
-99 -10 0 -82 9 -160 22 -125 19 -142 24 -147 42 -10 36 -7 185 4 191 5 3 35
1 67 -4 31 -6 58 -9 60 -7 2 2 -3 187 -11 411 -8 224 -12 414 -9 421 4 11 39
20 44 12z m-3234 -40 c-3 -7 -5 -2 -5 12 0 14 2 19 5 13 2 -7 2 -19 0 -25z
m50 0 c-3 -7 -5 -2 -5 12 0 14 2 19 5 13 2 -7 2 -19 0 -25z m110 10 c-3 -8 -6
-5 -6 6 -1 11 2 17 5 13 3 -3 4 -12 1 -19z m-30 -10 c-3 -8 -6 -5 -6 6 -1 11
2 17 5 13 3 -3 4 -12 1 -19z m-148 -77 c1 -74 -5 -61 -11 24 -3 40 -2 61 3 50
4 -11 8 -44 8 -74z m-32 17 c-2 -13 -4 -5 -4 17 -1 22 1 32 4 23 2 -10 2 -28
0 -40z m2052 -272 c0 -55 -1 -97 -3 -95 -2 2 -6 96 -9 209 -3 140 -2 170 3 95
4 -60 8 -155 9 -209z m-1972 252 c-2 -13 -4 -5 -4 17 -1 22 1 32 4 23 2 -10 2
-28 0 -40z m80 30 c-3 -8 -6 -5 -6 6 -1 11 2 17 5 13 3 -3 4 -12 1 -19z m-50
-65 c-2 -16 -4 -5 -4 22 0 28 2 40 4 28 2 -13 2 -35 0 -50z m80 5 c-2 -13 -4
-5 -4 17 -1 22 1 32 4 23 2 -10 2 -28 0 -40z m-30 10 c-3 -7 -5 -2 -5 12 0 14
2 19 5 13 2 -7 2 -19 0 -25z m-180 -45 c-3 -10 -5 -4 -5 12 0 17 2 24 5 18 2
-7 2 -21 0 -30z m160 -40 c-2 -16 -4 -3 -4 27 0 30 2 43 4 28 2 -16 2 -40 0
-55z m-50 20 c-3 -10 -5 -2 -5 17 0 19 2 27 5 18 2 -10 2 -26 0 -35z m82 -10
c-1 -62 -6 -56 -11 15 -2 23 0 42 4 42 5 0 7 -26 7 -57z m-112 0 c-3 -10 -5
-2 -5 17 0 19 2 27 5 18 2 -10 2 -26 0 -35z m160 -5 c-2 -13 -4 -5 -4 17 -1
22 1 32 4 23 2 -10 2 -28 0 -40z m-210 -20 c-3 -7 -5 -2 -5 12 0 14 2 19 5 13
2 -7 2 -19 0 -25z m2290 -181 c-2 -23 -3 -1 -3 48 0 50 1 68 3 42 2 -26 2 -67
0 -90z m-2190 -4 c-3 -10 -5 -2 -5 17 0 19 2 27 5 18 2 -10 2 -26 0 -35z
m4017 -19 c14 -5 16 -31 16 -180 0 -161 1 -174 19 -184 11 -5 33 -10 50 -10
16 0 41 -5 54 -11 l24 -11 6 -336 c4 -186 7 -413 7 -506 l0 -169 -70 7 c-68 6
-70 6 -76 -19 -7 -29 -6 -28 -38 -14 -14 7 -26 21 -28 33 -2 16 -15 23 -61 32
-32 6 -63 16 -69 22 -6 6 -14 128 -19 319 -4 169 -10 388 -13 486 -4 149 -3
177 10 177 8 0 14 5 14 11 0 6 21 9 57 8 l57 -3 -3 168 c-2 107 1 166 7 162 6
-3 12 1 16 9 6 16 16 18 40 9z m-1817 -101 c-2 -16 -4 -5 -4 22 0 28 2 40 4
28 2 -13 2 -35 0 -50z m-244 -133 c3 -111 2 -155 -3 -110 -8 79 -13 306 -6
299 2 -2 6 -87 9 -189z m-1946 88 c-2 -13 -4 -3 -4 22 0 25 2 35 4 23 2 -13 2
-33 0 -45z m2330 -110 c-2 -18 -4 -4 -4 32 0 36 2 50 4 33 2 -18 2 -48 0 -65z
m280 70 c-3 -8 -6 -5 -6 6 -1 11 2 17 5 13 3 -3 4 -12 1 -19z m-2600 -85 c-3
-10 -5 -4 -5 12 0 17 2 24 5 18 2 -7 2 -21 0 -30z m2330 -220 c-2 -32 -3 -8
-3 52 0 61 1 87 3 58 2 -29 2 -78 0 -110z m280 0 c-2 -32 -3 -8 -3 52 0 61 1
87 3 58 2 -29 2 -78 0 -110z m-2600 95 c-3 -8 -6 -5 -6 6 -1 11 2 17 5 13 3
-3 4 -12 1 -19z m0 -40 c-3 -8 -6 -5 -6 6 -1 11 2 17 5 13 3 -3 4 -12 1 -19z
m4250 -231 c-1 -45 -3 -5 -3 88 0 94 2 130 3 82 2 -48 2 -125 0 -170z m-4240
91 c-3 -8 -6 -5 -6 6 -1 11 2 17 5 13 3 -3 4 -12 1 -19z m2326 -223 c3 -149 2
-190 -3 -115 -8 126 -12 356 -6 349 2 -2 6 -107 9 -234z m1243 -20 c3 -14 10
-25 14 -25 4 0 7 -31 8 -69 0 -39 3 -74 6 -79 3 -5 30 -13 59 -16 66 -9 75
-26 78 -153 3 -117 -3 -126 -82 -117 l-58 6 5 -218 c9 -427 34 -1639 34 -1667
0 -16 -4 -26 -9 -23 -5 3 -12 -2 -16 -12 -18 -47 -25 49 -34 479 -22 987 -33
1434 -36 1445 -2 6 -27 14 -56 18 -91 12 -89 9 -89 152 l0 126 71 -7 71 -7 -7
85 c-4 47 -4 90 -1 96 12 20 35 12 42 -14z m-3509 -597 c-3 -7 -5 -2 -5 12 0
14 2 19 5 13 2 -7 2 -19 0 -25z m6071 -1127 c-5 -244 -7 -445 -6 -447 2 -1 19
-6 38 -9 53 -9 72 -16 92 -35 18 -16 18 -32 12 -279 -6 -206 -10 -264 -21
-273 -11 -9 -44 -6 -146 12 -73 12 -147 29 -164 36 l-33 13 0 274 c0 313 -7
292 92 281 l58 -7 0 449 0 449 23 11 c18 8 26 6 43 -11 21 -20 21 -22 12 -464z
m3032 157 l1 -33 14 25 c14 25 14 25 15 -15 1 -39 1 -39 14 -16 16 28 26 17
19 -22 -4 -22 -11 -27 -34 -27 -22 0 -32 6 -38 23 -5 12 -12 21 -17 20 -10 -3
-10 0 1 45 4 17 11 32 16 32 5 0 9 -15 9 -32z m94 -92 c-7 -27 -24 -38 -44
-26 -9 6 -8 10 5 18 10 5 19 20 21 33 4 35 4 35 15 17 5 -10 7 -28 3 -42z m26
-41 c-9 -25 -21 -31 -33 -19 -3 4 0 13 8 21 8 8 15 26 16 41 0 26 1 26 9 4 6
-13 6 -32 0 -47z m35 -25 c-4 -18 -13 -30 -22 -30 -11 0 -14 6 -8 23 3 12 9
33 12 46 5 20 7 21 15 7 5 -9 6 -30 3 -46z m29 -35 c-3 -14 -13 -25 -21 -25
-11 0 -13 5 -8 18 4 9 10 28 13 41 4 20 6 21 14 8 5 -9 6 -28 2 -42z m-2363
18 c1 -10 2 -70 3 -133 l1 -115 50 -8 c28 -5 61 -13 74 -18 l24 -10 -6 -181
c-7 -190 -11 -204 -52 -192 -11 3 -39 8 -62 11 -42 6 -43 5 -43 -25 0 -17 -4
-42 -10 -57 -8 -22 -13 -24 -29 -15 -15 8 -21 23 -23 63 l-3 52 -65 13 c-35 7
-68 18 -72 25 -11 15 -6 343 5 354 5 4 39 8 75 8 l67 0 5 114 c4 102 7 115 25
122 30 12 35 11 36 -8z m2399 -26 c0 -24 -25 -66 -33 -57 -7 7 16 80 25 80 5
0 8 -10 8 -23z m25 -56 c-4 -17 -13 -31 -21 -31 -11 0 -12 4 -4 19 5 11 10 30
10 42 0 17 3 20 11 12 7 -7 8 -24 4 -42z m35 -20 c0 -17 -5 -33 -11 -36 -15
-10 -17 -4 -12 33 6 40 23 42 23 3z m30 -35 c0 -13 -7 -29 -15 -36 -19 -16
-34 -5 -17 12 7 7 12 23 12 36 0 13 4 20 10 17 6 -3 10 -17 10 -29z m28 -38
c-2 -21 -9 -34 -19 -36 -14 -3 -15 2 -5 33 14 44 28 46 24 3z m32 -27 c0 -16
-7 -34 -15 -41 -12 -10 -15 -10 -15 3 0 9 4 18 9 21 5 3 7 15 4 26 -3 11 0 20
6 20 6 0 11 -13 11 -29z m26 -67 c-3 -8 -12 -14 -21 -14 -14 0 -14 2 0 23 8
13 12 26 9 30 -3 3 -2 12 2 19 11 15 19 -35 10 -58z m34 -9 c0 -25 -4 -35 -16
-35 -11 0 -14 5 -9 18 4 9 10 25 12 35 8 27 13 20 13 -18z m19 -66 c-19 -11
-20 -7 -6 30 l12 34 3 -28 c2 -15 -2 -31 -9 -36z m30 -33 c-9 -8 -10 -5 -5 14
3 14 6 32 7 40 1 8 4 2 6 -14 3 -16 -1 -34 -8 -40z m41 -6 c0 -22 -5 -30 -17
-30 -13 0 -14 3 -5 12 7 7 12 20 12 30 0 10 2 18 5 18 3 0 5 -13 5 -30z m30
-30 c0 -16 -4 -30 -8 -30 -5 0 -7 14 -4 30 2 17 6 30 8 30 2 0 4 -13 4 -30z
m27 -47 c-3 -10 -5 -4 -5 12 0 17 2 24 5 18 2 -7 2 -21 0 -30z m30 -35 c-3 -8
-6 -5 -6 6 -1 11 2 17 5 13 3 -3 4 -12 1 -19z m30 -40 c-3 -7 -5 -2 -5 12 0
14 2 19 5 13 2 -7 2 -19 0 -25z m-439 -920 c4 26 22 11 22 -18 0 -40 -26 -40
-35 0 -4 17 -11 28 -16 24 -5 -3 -14 -2 -21 2 -8 5 -7 10 4 18 8 6 18 20 23
31 7 16 10 12 15 -25 4 -25 8 -39 8 -32z m40 -79 c-31 -20 -38 -1 -10 31 l17
21 3 -22 c2 -12 -2 -26 -10 -30z m42 -29 c0 -20 -5 -30 -15 -30 -18 0 -19 14
-5 41 15 27 20 24 20 -11z m30 -45 c0 -16 -6 -25 -16 -25 -11 0 -14 5 -10 16
3 9 6 20 6 25 0 5 5 9 10 9 6 0 10 -11 10 -25z m30 -50 c0 -18 -5 -25 -20 -25
-20 0 -20 1 -4 25 9 14 18 25 20 25 2 0 4 -11 4 -25z m30 -45 c0 -13 -7 -20
-20 -20 -23 0 -25 5 -7 25 17 20 27 18 27 -5z m28 -47 c-2 -9 -8 -18 -15 -20
-7 -3 -9 3 -6 16 6 25 26 28 21 4z m22 -48 c0 -8 -4 -15 -10 -15 -5 0 -7 7 -4
15 4 8 8 15 10 15 2 0 4 -7 4 -15z m26 -73 c-11 -10 -15 4 -8 28 l7 25 3 -23
c2 -13 1 -26 -2 -30z m91 -114 c-3 -8 -6 -5 -6 6 -1 11 2 17 5 13 3 -3 4 -12
1 -19z"/>
<path d="M2814 10499 c14 -94 126 -1103 126 -1126 0 -7 6 -12 13 -10 7 1 13
-11 15 -33 2 -26 0 -31 -8 -20 -8 13 -10 12 -10 -5 0 -29 18 -146 23 -151 8
-8 84 -21 176 -29 l54 -5 -7 61 c-3 34 -6 73 -6 86 0 15 -4 22 -11 17 -6 -3
-15 0 -20 7 -6 10 -9 10 -9 2 0 -9 -7 -10 -22 -5 -13 5 -33 7 -45 6 -13 0 -23
2 -23 7 0 5 -7 6 -15 3 -10 -4 -15 0 -15 16 0 14 4 19 12 14 7 -5 31 -9 53
-10 22 -1 50 -5 63 -8 28 -6 28 -24 -8 301 -16 148 -43 396 -60 553 -41 391
-28 346 -108 354 -37 4 -91 9 -120 13 l-54 6 6 -44z m173 -1176 c-3 -10 -5 -4
-5 12 0 17 2 24 5 18 2 -7 2 -21 0 -30z m30 -15 c-3 -7 -5 -2 -5 12 0 14 2 19
5 13 2 -7 2 -19 0 -25z"/>
<path d="M4500 9575 c-25 -13 -51 -24 -57 -24 -7 -1 -13 -5 -13 -11 0 -5 -11
-10 -25 -10 -14 0 -25 -4 -25 -10 0 -5 -11 -10 -25 -10 -14 0 -25 -4 -25 -10
0 -5 -11 -10 -25 -10 -14 0 -25 -4 -25 -9 0 -5 -13 -12 -30 -16 -54 -12 -31
-23 43 -20 39 1 73 4 75 5 14 15 197 22 290 11 53 -6 117 -14 142 -16 25 -3
68 -7 95 -10 63 -7 135 -25 135 -35 0 -4 6 -7 13 -7 6 0 26 -4 42 -7 l30 -7
-30 23 c-16 13 -37 28 -46 33 -10 6 -38 22 -64 37 -25 15 -71 32 -101 37 -30
6 -63 15 -74 21 -10 5 -54 17 -96 25 -42 8 -87 21 -100 30 -30 20 -50 18 -104
-10z"/>
<path d="M4190 9440 c-13 -8 -12 -10 3 -10 9 0 17 5 17 10 0 12 -1 12 -20 0z"/>
<path d="M3791 9328 c0 -13 3 -17 6 -10 2 6 11 12 19 12 9 0 12 5 9 10 -12 19
-35 10 -34 -12z"/>
<path d="M5837 9060 c10 -11 21 -20 25 -20 5 0 32 -17 61 -37 105 -75 195
-133 204 -133 17 0 55 -41 128 -135 38 -49 72 -92 75 -95 3 -3 30 -36 60 -75
30 -38 60 -74 66 -80 6 -5 26 -30 45 -55 18 -25 36 -47 39 -50 3 -3 24 -29 47
-58 45 -57 149 -176 201 -229 17 -19 32 -36 32 -39 0 -2 20 -25 45 -50 25 -24
45 -46 45 -48 0 -5 71 -82 213 -228 106 -110 127 -128 127 -108 0 14 -7 132
-16 264 -8 132 -13 248 -11 258 6 20 -27 58 -49 58 -7 0 -14 4 -16 8 -1 5 -43
35 -93 68 -104 69 -158 106 -165 115 -3 4 -21 17 -40 30 -19 14 -44 32 -55 41
-47 39 -116 88 -124 88 -5 0 -11 4 -13 8 -1 4 -21 21 -43 37 -22 17 -46 35
-55 42 -52 40 -111 83 -115 83 -3 0 -13 8 -23 18 -35 32 -62 52 -72 52 -6 0
-10 3 -10 8 0 4 -20 20 -45 35 -25 16 -45 33 -45 37 0 5 -9 12 -21 15 -12 4
-30 16 -41 27 -11 11 -54 35 -96 55 -43 19 -95 43 -117 53 -22 10 -51 22 -65
25 -14 4 -30 12 -37 17 -6 5 -23 11 -37 14 -25 4 -26 4 -9 -16z"/>
<path d="M7270 8083 c-1 -48 22 -491 26 -510 2 -12 39 -58 82 -102 65 -67 83
-80 114 -82 20 -2 39 -1 43 2 3 3 -2 142 -12 308 -15 262 -19 305 -35 323 -10
12 -18 17 -18 13 0 -5 -5 -4 -12 3 -7 7 -22 12 -34 12 -13 0 -44 11 -70 25
-55 30 -84 32 -84 8z"/>
<path d="M7304 7383 c3 -42 8 -79 11 -81 5 -6 177 -31 213 -32 15 0 22 6 22
19 0 26 -18 37 -75 45 -44 5 -55 13 -106 66 -31 33 -60 60 -64 60 -5 0 -5 -35
-1 -77z"/>
<path d="M13871 4544 c0 -11 3 -14 6 -6 3 7 2 16 -1 19 -3 4 -6 -2 -5 -13z"/>
<path d="M14721 4044 c0 -11 3 -14 6 -6 3 7 2 16 -1 19 -3 4 -6 -2 -5 -13z"/>
<path d="M14871 3934 c0 -11 3 -14 6 -6 3 7 2 16 -1 19 -3 4 -6 -2 -5 -13z"/>
<path d="M15001 3854 c0 -11 3 -14 6 -6 3 7 2 16 -1 19 -3 4 -6 -2 -5 -13z"/>
<path d="M15031 3824 c0 -11 3 -14 6 -6 3 7 2 16 -1 19 -3 4 -6 -2 -5 -13z"/>
<path d="M15091 3784 c0 -11 3 -14 6 -6 3 7 2 16 -1 19 -3 4 -6 -2 -5 -13z"/>
<path d="M15157 3753 c-4 -3 -7 -11 -7 -17 0 -6 5 -5 12 2 6 6 9 14 7 17 -3 3
-9 2 -12 -2z"/>
<path d="M15221 3704 c0 -11 3 -14 6 -6 3 7 2 16 -1 19 -3 4 -6 -2 -5 -13z"/>
<path d="M15247 3671 c-4 -17 -3 -21 5 -13 5 5 8 16 6 23 -3 8 -7 3 -11 -10z"/>
<path d="M4903 8454 c4 -33 9 -98 13 -147 6 -78 9 -88 28 -92 39 -8 207 -27
211 -23 7 7 -22 279 -30 287 -6 5 -37 12 -70 15 -33 3 -82 9 -109 12 l-49 6 6
-58z"/>
<path d="M6920 7318 c0 -21 38 -647 60 -996 11 -172 20 -326 20 -342 0 -42 12
-47 176 -66 l52 -6 -4 43 c-2 24 -8 134 -14 244 -6 110 -15 277 -20 370 -6 94
-17 293 -25 444 -9 151 -18 277 -20 281 -2 4 -39 12 -82 19 -43 6 -93 14 -110
17 -23 3 -33 1 -33 -8z"/>
<path d="M6963 6040 c0 -30 2 -43 4 -27 2 15 2 39 0 55 -2 15 -4 2 -4 -28z"/>
<path d="M6631 5971 c-25 -16 -2 -29 72 -40 39 -7 87 -14 105 -17 27 -4 32 -2
32 16 0 11 -6 20 -12 20 -20 1 -151 20 -168 25 -8 2 -21 1 -29 -4z"/>
<path d="M9410 5312 c0 -28 5 -54 12 -58 13 -8 169 -33 211 -34 25 0 27 3 27
43 0 23 -4 47 -8 54 -4 6 -43 16 -87 23 -44 6 -97 14 -117 17 l-38 6 0 -51z"/>
<path d="M10255 4946 c4 -248 11 -453 15 -456 13 -8 201 -32 207 -26 10 9 -12
885 -22 895 -5 5 -54 16 -109 23 l-99 14 8 -450z"/>
<path d="M9848 4693 c2 -43 6 -80 8 -82 6 -7 154 -30 191 -30 29 -1 32 2 29
22 -3 12 -5 47 -5 78 l-1 56 -89 17 c-144 26 -137 30 -133 -61z"/>
<path d="M12365 2549 c-5 -146 -4 -234 2 -240 8 -8 214 -51 219 -45 5 5 10
467 5 474 -5 7 -177 42 -208 42 -7 0 -13 -77 -18 -231z"/>
<path d="M13227 2943 c-4 -3 -7 -61 -7 -129 l0 -122 28 -6 c71 -15 206 -36
209 -33 2 2 6 61 10 130 l6 126 -24 5 c-48 12 -184 36 -200 36 -9 0 -19 -3
-22 -7z"/>
</g>
</svg>
